# xmcd CD database file
#
# Track frame offsets:
#	150
#	4897
#	15959
#	25751
#	32156
#	40310
#	53877
#	62535
#	72960
#	79596
#	90546
#	98181
#	105572
#	115694
#	121893
#	128118
#	137343
#	146900
#	160061
#	166469
#	172991
#	184696
#	197870
#	211835
#	233966
#
# Disc length: 3187 seconds
#
# Revision: 2
# Processed by: cddbd v1.5.2PL0 Copyright (c) Steve Scherf et al.
# Submitted via: CDex 1.70beta2
#
DISCID=450c7119
DTITLE=Nacho del Río y Beatriz Bernad - La Jota de ayer y de hoy 3
DYEAR=2008
DGENRE=Jota
TTITLE0=La ronda zaragozana
TTITLE1=Homenaje a José oto
TTITLE2=No quiero traerte flores
TTITLE3=Dispensar si ha sido tarde
TTITLE4=Al puerto de Collarada
TTITLE5=Que no cesa de nevar
TTITLE6=Homenaje a Balbino Orensaz
TTITLE7=Que en el Rabal lo dijeron
TTITLE8=Anda y pínchame una vena
TTITLE9=He visto una cosa rara
TTITLE10=Brilla muy feliz mi alma
TTITLE11=Tengo que darle a mi novia
TTITLE12=No me extraña que tu madre
TTITLE13=La que ronda y rondará
TTITLE14=La batería
TTITLE15=Me cogieron prisionero
TTITLE16=Hoy la jota sale brava
TTITLE17=Con mi guitarro a rondar
TTITLE18=Que tenga poquicos años
TTITLE19=Ya viene apuntando el día
TTITLE20=Jota al aire
TTITLE21=Jota picada
TTITLE22=Anímate bailador
TTITLE23=Homenaje a Teresa Salvo
TTITLE24=Jota blues
EXTD=YEAR: 2008
EXTT0=
EXTT1=
EXTT2=
EXTT3=
EXTT4=
EXTT5=
EXTT6=
EXTT7=
EXTT8=
EXTT9=
EXTT10=
EXTT11=
EXTT12=
EXTT13=
EXTT14=
EXTT15=
EXTT16=
EXTT17=
EXTT18=
EXTT19=
EXTT20=
EXTT21=
EXTT22=
EXTT23=
EXTT24=
PLAYORDER=
